<?xml version="1.0" encoding="utf-8" standalone="no"?>
<!DOCTYPE svg PUBLIC "-//W3C//DTD SVG 1.1//EN"
  "http://www.w3.org/Graphics/SVG/1.1/DTD/svg11.dtd">
<svg xmlns:xlink="http://www.w3.org/1999/xlink" width="312.849993pt" height="264.711597pt" viewBox="0 0 312.849993 264.711597" xmlns="http://www.w3.org/2000/svg" version="1.1">
 <metadata>
  <rdf:RDF xmlns:dc="http://purl.org/dc/elements/1.1/" xmlns:cc="http://creativecommons.org/ns#" xmlns:rdf="http://www.w3.org/1999/02/22-rdf-syntax-ns#">
   <cc:Work>
    <dc:type rdf:resource="http://purl.org/dc/dcmitype/StillImage"/>
    <dc:date>2024-10-30T11:59:40.405393</dc:date>
    <dc:format>image/svg+xml</dc:format>
    <dc:creator>
     <cc:Agent>
      <dc:title>Matplotlib v3.8.4, https://matplotlib.org/</dc:title>
     </cc:Agent>
    </dc:creator>
   </cc:Work>
  </rdf:RDF>
 </metadata>
 <defs>
  <style type="text/css">*{stroke-linejoin: round; stroke-linecap: butt}</style>
 </defs>
 <g id="figure_1">
  <g id="patch_1">
   <path d="M 0 264.711597 
L 312.849993 264.711597 
L 312.849993 0 
L 0 0 
z
" style="fill: #ffffff"/>
  </g>
  <g id="axes_1">
   <g id="line2d_1">
    <path d="M 64.609196 44.2832 
L 301.014593 44.2832 
" clip-path="url(#pe4fa24a5b3)" style="fill: none; stroke: #000000; stroke-width: 2; stroke-linecap: square"/>
   </g>
   <g id="line2d_2">
    <path d="M 64.609196 90.637199 
L 301.014593 90.637199 
" clip-path="url(#pe4fa24a5b3)" style="fill: none; stroke: #000000; stroke-width: 2; stroke-linecap: square"/>
   </g>
   <g id="line2d_3">
    <path d="M 64.609196 136.991198 
L 301.014593 136.991198 
" clip-path="url(#pe4fa24a5b3)" style="fill: none; stroke: #000000; stroke-width: 2; stroke-linecap: square"/>
   </g>
   <g id="line2d_4">
    <path d="M 64.609196 183.345198 
L 301.014593 183.345198 
" clip-path="url(#pe4fa24a5b3)" style="fill: none; stroke: #000000; stroke-width: 2; stroke-linecap: square"/>
   </g>
   <g id="line2d_5">
    <path d="M 64.609196 229.699197 
L 301.014593 229.699197 
" clip-path="url(#pe4fa24a5b3)" style="fill: none; stroke: #000000; stroke-width: 2; stroke-linecap: square"/>
   </g>
   <g id="patch_2">
    <path d="M 59.973797 21.1062 
L -1098.876188 21.1062 
L -1098.876188 299.230196 
L 59.973797 299.230196 
z
" clip-path="url(#pe4fa24a5b3)" style="fill: #ffffff; stroke: #ffffff; stroke-width: 1.5; stroke-linejoin: miter"/>
   </g>
   <g id="line2d_6">
    <path d="M 89.640356 90.637199 
L 89.640356 44.2832 
" clip-path="url(#pe4fa24a5b3)" style="fill: none; stroke: #002d9c; stroke-width: 2; stroke-linecap: square"/>
   </g>
   <g id="line2d_7">
    <path d="M 89.640356 183.345198 
L 89.640356 136.991198 
" clip-path="url(#pe4fa24a5b3)" style="fill: none; stroke: #002d9c; stroke-width: 2; stroke-linecap: square"/>
   </g>
   <g id="line2d_8">
    <path d="M 135.994356 136.991198 
L 135.994356 90.637199 
" clip-path="url(#pe4fa24a5b3)" style="fill: none; stroke: #002d9c; stroke-width: 2; stroke-linecap: square"/>
   </g>
   <g id="line2d_9">
    <path d="M 135.994356 229.699197 
L 135.994356 183.345198 
" clip-path="url(#pe4fa24a5b3)" style="fill: none; stroke: #002d9c; stroke-width: 2; stroke-linecap: square"/>
   </g>
   <g id="line2d_10">
    <path d="M 228.702354 136.991198 
L 228.702354 90.637199 
" clip-path="url(#pe4fa24a5b3)" style="fill: none; stroke: #002d9c; stroke-width: 2; stroke-linecap: square"/>
   </g>
   <g id="line2d_11">
    <path d="M 228.702354 229.699197 
L 228.702354 183.345198 
" clip-path="url(#pe4fa24a5b3)" style="fill: none; stroke: #002d9c; stroke-width: 2; stroke-linecap: square"/>
   </g>
   <g id="line2d_12">
    <path d="M 275.056354 90.637199 
L 275.056354 44.2832 
" clip-path="url(#pe4fa24a5b3)" style="fill: none; stroke: #002d9c; stroke-width: 2; stroke-linecap: square"/>
   </g>
   <g id="line2d_13">
    <path d="M 275.056354 183.345198 
L 275.056354 136.991198 
" clip-path="url(#pe4fa24a5b3)" style="fill: none; stroke: #002d9c; stroke-width: 2; stroke-linecap: square"/>
   </g>
   <g id="patch_3">
    <path d="M 89.640356 95.156714 
C 90.838946 95.156714 91.988605 94.680509 92.836136 93.832979 
C 93.683666 92.985448 94.159871 91.835788 94.159871 90.637199 
C 94.159871 89.43861 93.683666 88.28895 92.836136 87.441419 
C 91.988605 86.593889 90.838946 86.117684 89.640356 86.117684 
C 88.441767 86.117684 87.292107 86.593889 86.444576 87.441419 
C 85.597046 88.28895 85.120841 89.43861 85.120841 90.637199 
C 85.120841 91.835788 85.597046 92.985448 86.444576 93.832979 
C 87.292107 94.680509 88.441767 95.156714 89.640356 95.156714 
z
" clip-path="url(#pe4fa24a5b3)" style="fill: #002d9c; stroke: #002d9c; stroke-width: 1.5; stroke-linejoin: miter"/>
   </g>
   <g id="patch_4">
    <path d="M 89.640356 54.828734 
C 92.437065 54.828734 95.119604 53.71759 97.097175 51.740019 
C 99.074747 49.762447 100.185891 47.079908 100.185891 44.2832 
C 100.185891 41.486491 99.074747 38.803952 97.097175 36.82638 
C 95.119604 34.848809 92.437065 33.737665 89.640356 33.737665 
C 86.843648 33.737665 84.161108 34.848809 82.183537 36.82638 
C 80.205965 38.803952 79.094821 41.486491 79.094821 44.2832 
C 79.094821 47.079908 80.205965 49.762447 82.183537 51.740019 
C 84.161108 53.71759 86.843648 54.828734 89.640356 54.828734 
z
" clip-path="url(#pe4fa24a5b3)" style="fill: #002d9c; stroke: #002d9c; stroke-width: 2; stroke-linejoin: miter"/>
   </g>
   <g id="patch_5">
    <path d="M 89.640356 187.864713 
C 90.838946 187.864713 91.988605 187.388508 92.836136 186.540977 
C 93.683666 185.693447 94.159871 184.543787 94.159871 183.345198 
C 94.159871 182.146608 93.683666 180.996949 92.836136 180.149418 
C 91.988605 179.301887 90.838946 178.825683 89.640356 178.825683 
C 88.441767 178.825683 87.292107 179.301887 86.444576 180.149418 
C 85.597046 180.996949 85.120841 182.146608 85.120841 183.345198 
C 85.120841 184.543787 85.597046 185.693447 86.444576 186.540977 
C 87.292107 187.388508 88.441767 187.864713 89.640356 187.864713 
z
" clip-path="url(#pe4fa24a5b3)" style="fill: #002d9c; stroke: #002d9c; stroke-width: 1.5; stroke-linejoin: miter"/>
   </g>
   <g id="patch_6">
    <path d="M 89.640356 147.536733 
C 92.437065 147.536733 95.119604 146.425589 97.097175 144.448017 
C 99.074747 142.470446 100.185891 139.787907 100.185891 136.991198 
C 100.185891 134.19449 99.074747 131.511951 97.097175 129.534379 
C 95.119604 127.556807 92.437065 126.445663 89.640356 126.445663 
C 86.843648 126.445663 84.161108 127.556807 82.183537 129.534379 
C 80.205965 131.511951 79.094821 134.19449 79.094821 136.991198 
C 79.094821 139.787907 80.205965 142.470446 82.183537 144.448017 
C 84.161108 146.425589 86.843648 147.536733 89.640356 147.536733 
z
" clip-path="url(#pe4fa24a5b3)" style="fill: #002d9c; stroke: #002d9c; stroke-width: 2; stroke-linejoin: miter"/>
   </g>
   <g id="patch_7">
    <path d="M 135.994356 95.156714 
C 137.192945 95.156714 138.342605 94.680509 139.190135 93.832979 
C 140.037666 92.985448 140.51387 91.835788 140.51387 90.637199 
C 140.51387 89.43861 140.037666 88.28895 139.190135 87.441419 
C 138.342605 86.593889 137.192945 86.117684 135.994356 86.117684 
C 134.795766 86.117684 133.646107 86.593889 132.798576 87.441419 
C 131.951045 88.28895 131.474841 89.43861 131.474841 90.637199 
C 131.474841 91.835788 131.951045 92.985448 132.798576 93.832979 
C 133.646107 94.680509 134.795766 95.156714 135.994356 95.156714 
z
" clip-path="url(#pe4fa24a5b3)" style="fill: #002d9c; stroke: #002d9c; stroke-width: 1.5; stroke-linejoin: miter"/>
   </g>
   <g id="patch_8">
    <path d="M 135.994356 147.536733 
C 138.791064 147.536733 141.473603 146.425589 143.451175 144.448017 
C 145.428746 142.470446 146.53989 139.787907 146.53989 136.991198 
C 146.53989 134.19449 145.428746 131.511951 143.451175 129.534379 
C 141.473603 127.556807 138.791064 126.445663 135.994356 126.445663 
C 133.197647 126.445663 130.515108 127.556807 128.537536 129.534379 
C 126.559965 131.511951 125.448821 134.19449 125.448821 136.991198 
C 125.448821 139.787907 126.559965 142.470446 128.537536 144.448017 
C 130.515108 146.425589 133.197647 147.536733 135.994356 147.536733 
z
" clip-path="url(#pe4fa24a5b3)" style="fill: #002d9c; stroke: #002d9c; stroke-width: 2; stroke-linejoin: miter"/>
   </g>
   <g id="patch_9">
    <path d="M 135.994356 187.864713 
C 137.192945 187.864713 138.342605 187.388508 139.190135 186.540977 
C 140.037666 185.693447 140.51387 184.543787 140.51387 183.345198 
C 140.51387 182.146608 140.037666 180.996949 139.190135 180.149418 
C 138.342605 179.301887 137.192945 178.825683 135.994356 178.825683 
C 134.795766 178.825683 133.646107 179.301887 132.798576 180.149418 
C 131.951045 180.996949 131.474841 182.146608 131.474841 183.345198 
C 131.474841 184.543787 131.951045 185.693447 132.798576 186.540977 
C 133.646107 187.388508 134.795766 187.864713 135.994356 187.864713 
z
" clip-path="url(#pe4fa24a5b3)" style="fill: #002d9c; stroke: #002d9c; stroke-width: 1.5; stroke-linejoin: miter"/>
   </g>
   <g id="patch_10">
    <path d="M 135.994356 240.244732 
C 138.791064 240.244732 141.473603 239.133588 143.451175 237.156016 
C 145.428746 235.178445 146.53989 232.495906 146.53989 229.699197 
C 146.53989 226.902489 145.428746 224.219949 143.451175 222.242378 
C 141.473603 220.264806 138.791064 219.153662 135.994356 219.153662 
C 133.197647 219.153662 130.515108 220.264806 128.537536 222.242378 
C 126.559965 224.219949 125.448821 226.902489 125.448821 229.699197 
C 125.448821 232.495906 126.559965 235.178445 128.537536 237.156016 
C 130.515108 239.133588 133.197647 240.244732 135.994356 240.244732 
z
" clip-path="url(#pe4fa24a5b3)" style="fill: #002d9c; stroke: #002d9c; stroke-width: 2; stroke-linejoin: miter"/>
   </g>
   <g id="patch_11">
    <path d="M 166.70388 105.702249 
L 197.99283 105.702249 
L 197.99283 75.572149 
L 166.70388 75.572149 
z
" clip-path="url(#pe4fa24a5b3)" style="fill: #9f1853; stroke: #9f1853; stroke-width: 1.5; stroke-linejoin: miter"/>
   </g>
   <g id="patch_12">
    <path d="M 166.70388 198.410247 
L 197.99283 198.410247 
L 197.99283 168.280148 
L 166.70388 168.280148 
z
" clip-path="url(#pe4fa24a5b3)" style="fill: #9f1853; stroke: #9f1853; stroke-width: 1.5; stroke-linejoin: miter"/>
   </g>
   <g id="patch_13">
    <path d="M 228.702354 95.156714 
C 229.900944 95.156714 231.050603 94.680509 231.898134 93.832979 
C 232.745665 92.985448 233.221869 91.835788 233.221869 90.637199 
C 233.221869 89.43861 232.745665 88.28895 231.898134 87.441419 
C 231.050603 86.593889 229.900944 86.117684 228.702354 86.117684 
C 227.503765 86.117684 226.354105 86.593889 225.506575 87.441419 
C 224.659044 88.28895 224.182839 89.43861 224.182839 90.637199 
C 224.182839 91.835788 224.659044 92.985448 225.506575 93.832979 
C 226.354105 94.680509 227.503765 95.156714 228.702354 95.156714 
z
" clip-path="url(#pe4fa24a5b3)" style="fill: #002d9c; stroke: #002d9c; stroke-width: 1.5; stroke-linejoin: miter"/>
   </g>
   <g id="patch_14">
    <path d="M 228.702354 147.536733 
C 231.499063 147.536733 234.181602 146.425589 236.159173 144.448017 
C 238.136745 142.470446 239.247889 139.787907 239.247889 136.991198 
C 239.247889 134.19449 238.136745 131.511951 236.159173 129.534379 
C 234.181602 127.556807 231.499063 126.445663 228.702354 126.445663 
C 225.905646 126.445663 223.223107 127.556807 221.245535 129.534379 
C 219.267964 131.511951 218.156819 134.19449 218.156819 136.991198 
C 218.156819 139.787907 219.267964 142.470446 221.245535 144.448017 
C 223.223107 146.425589 225.905646 147.536733 228.702354 147.536733 
z
" clip-path="url(#pe4fa24a5b3)" style="fill: #002d9c; stroke: #002d9c; stroke-width: 2; stroke-linejoin: miter"/>
   </g>
   <g id="patch_15">
    <path d="M 228.702354 187.864713 
C 229.900944 187.864713 231.050603 187.388508 231.898134 186.540977 
C 232.745665 185.693447 233.221869 184.543787 233.221869 183.345198 
C 233.221869 182.146608 232.745665 180.996949 231.898134 180.149418 
C 231.050603 179.301887 229.900944 178.825683 228.702354 178.825683 
C 227.503765 178.825683 226.354105 179.301887 225.506575 180.149418 
C 224.659044 180.996949 224.182839 182.146608 224.182839 183.345198 
C 224.182839 184.543787 224.659044 185.693447 225.506575 186.540977 
C 226.354105 187.388508 227.503765 187.864713 228.702354 187.864713 
z
" clip-path="url(#pe4fa24a5b3)" style="fill: #002d9c; stroke: #002d9c; stroke-width: 1.5; stroke-linejoin: miter"/>
   </g>
   <g id="patch_16">
    <path d="M 228.702354 240.244732 
C 231.499063 240.244732 234.181602 239.133588 236.159173 237.156016 
C 238.136745 235.178445 239.247889 232.495906 239.247889 229.699197 
C 239.247889 226.902489 238.136745 224.219949 236.159173 222.242378 
C 234.181602 220.264806 231.499063 219.153662 228.702354 219.153662 
C 225.905646 219.153662 223.223107 220.264806 221.245535 222.242378 
C 219.267964 224.219949 218.156819 226.902489 218.156819 229.699197 
C 218.156819 232.495906 219.267964 235.178445 221.245535 237.156016 
C 223.223107 239.133588 225.905646 240.244732 228.702354 240.244732 
z
" clip-path="url(#pe4fa24a5b3)" style="fill: #002d9c; stroke: #002d9c; stroke-width: 2; stroke-linejoin: miter"/>
   </g>
   <g id="patch_17">
    <path d="M 275.056354 95.156714 
C 276.254943 95.156714 277.404603 94.680509 278.252133 93.832979 
C 279.099664 92.985448 279.575869 91.835788 279.575869 90.637199 
C 279.575869 89.43861 279.099664 88.28895 278.252133 87.441419 
C 277.404603 86.593889 276.254943 86.117684 275.056354 86.117684 
C 273.857764 86.117684 272.708105 86.593889 271.860574 87.441419 
C 271.013043 88.28895 270.536839 89.43861 270.536839 90.637199 
C 270.536839 91.835788 271.013043 92.985448 271.860574 93.832979 
C 272.708105 94.680509 273.857764 95.156714 275.056354 95.156714 
z
" clip-path="url(#pe4fa24a5b3)" style="fill: #002d9c; stroke: #002d9c; stroke-width: 1.5; stroke-linejoin: miter"/>
   </g>
   <g id="patch_18">
    <path d="M 275.056354 54.828734 
C 277.853062 54.828734 280.535601 53.71759 282.513173 51.740019 
C 284.490744 49.762447 285.601889 47.079908 285.601889 44.2832 
C 285.601889 41.486491 284.490744 38.803952 282.513173 36.82638 
C 280.535601 34.848809 277.853062 33.737665 275.056354 33.737665 
C 272.259645 33.737665 269.577106 34.848809 267.599534 36.82638 
C 265.621963 38.803952 264.510819 41.486491 264.510819 44.2832 
C 264.510819 47.079908 265.621963 49.762447 267.599534 51.740019 
C 269.577106 53.71759 272.259645 54.828734 275.056354 54.828734 
z
" clip-path="url(#pe4fa24a5b3)" style="fill: #002d9c; stroke: #002d9c; stroke-width: 2; stroke-linejoin: miter"/>
   </g>
   <g id="patch_19">
    <path d="M 275.056354 187.864713 
C 276.254943 187.864713 277.404603 187.388508 278.252133 186.540977 
C 279.099664 185.693447 279.575869 184.543787 279.575869 183.345198 
C 279.575869 182.146608 279.099664 180.996949 278.252133 180.149418 
C 277.404603 179.301887 276.254943 178.825683 275.056354 178.825683 
C 273.857764 178.825683 272.708105 179.301887 271.860574 180.149418 
C 271.013043 180.996949 270.536839 182.146608 270.536839 183.345198 
C 270.536839 184.543787 271.013043 185.693447 271.860574 186.540977 
C 272.708105 187.388508 273.857764 187.864713 275.056354 187.864713 
z
" clip-path="url(#pe4fa24a5b3)" style="fill: #002d9c; stroke: #002d9c; stroke-width: 1.5; stroke-linejoin: miter"/>
   </g>
   <g id="patch_20">
    <path d="M 275.056354 147.536733 
C 277.853062 147.536733 280.535601 146.425589 282.513173 144.448017 
C 284.490744 142.470446 285.601889 139.787907 285.601889 136.991198 
C 285.601889 134.19449 284.490744 131.511951 282.513173 129.534379 
C 280.535601 127.556807 277.853062 126.445663 275.056354 126.445663 
C 272.259645 126.445663 269.577106 127.556807 267.599534 129.534379 
C 265.621963 131.511951 264.510819 134.19449 264.510819 136.991198 
C 264.510819 139.787907 265.621963 142.470446 267.599534 144.448017 
C 269.577106 146.425589 272.259645 147.536733 275.056354 147.536733 
z
" clip-path="url(#pe4fa24a5b3)" style="fill: #002d9c; stroke: #002d9c; stroke-width: 2; stroke-linejoin: miter"/>
   </g>
   <g id="line2d_14">
    <path d="M 89.640356 50.309219 
L 89.640356 38.25718 
" clip-path="url(#pe4fa24a5b3)" style="fill: none; stroke: #ffffff; stroke-width: 2; stroke-linecap: square"/>
   </g>
   <g id="line2d_15">
    <path d="M 83.614336 44.2832 
L 95.666376 44.2832 
" clip-path="url(#pe4fa24a5b3)" style="fill: none; stroke: #ffffff; stroke-width: 2; stroke-linecap: square"/>
   </g>
   <g id="line2d_16">
    <path d="M 89.640356 143.017218 
L 89.640356 130.965178 
" clip-path="url(#pe4fa24a5b3)" style="fill: none; stroke: #ffffff; stroke-width: 2; stroke-linecap: square"/>
   </g>
   <g id="line2d_17">
    <path d="M 83.614336 136.991198 
L 95.666376 136.991198 
" clip-path="url(#pe4fa24a5b3)" style="fill: none; stroke: #ffffff; stroke-width: 2; stroke-linecap: square"/>
   </g>
   <g id="line2d_18">
    <path d="M 135.994356 143.017218 
L 135.994356 130.965178 
" clip-path="url(#pe4fa24a5b3)" style="fill: none; stroke: #ffffff; stroke-width: 2; stroke-linecap: square"/>
   </g>
   <g id="line2d_19">
    <path d="M 129.968336 136.991198 
L 142.020375 136.991198 
" clip-path="url(#pe4fa24a5b3)" style="fill: none; stroke: #ffffff; stroke-width: 2; stroke-linecap: square"/>
   </g>
   <g id="line2d_20">
    <path d="M 135.994356 235.725217 
L 135.994356 223.673177 
" clip-path="url(#pe4fa24a5b3)" style="fill: none; stroke: #ffffff; stroke-width: 2; stroke-linecap: square"/>
   </g>
   <g id="line2d_21">
    <path d="M 129.968336 229.699197 
L 142.020375 229.699197 
" clip-path="url(#pe4fa24a5b3)" style="fill: none; stroke: #ffffff; stroke-width: 2; stroke-linecap: square"/>
   </g>
   <g id="line2d_22">
    <path d="M 228.702354 143.017218 
L 228.702354 130.965178 
" clip-path="url(#pe4fa24a5b3)" style="fill: none; stroke: #ffffff; stroke-width: 2; stroke-linecap: square"/>
   </g>
   <g id="line2d_23">
    <path d="M 222.676334 136.991198 
L 234.728374 136.991198 
" clip-path="url(#pe4fa24a5b3)" style="fill: none; stroke: #ffffff; stroke-width: 2; stroke-linecap: square"/>
   </g>
   <g id="line2d_24">
    <path d="M 228.702354 235.725217 
L 228.702354 223.673177 
" clip-path="url(#pe4fa24a5b3)" style="fill: none; stroke: #ffffff; stroke-width: 2; stroke-linecap: square"/>
   </g>
   <g id="line2d_25">
    <path d="M 222.676334 229.699197 
L 234.728374 229.699197 
" clip-path="url(#pe4fa24a5b3)" style="fill: none; stroke: #ffffff; stroke-width: 2; stroke-linecap: square"/>
   </g>
   <g id="line2d_26">
    <path d="M 275.056354 50.309219 
L 275.056354 38.25718 
" clip-path="url(#pe4fa24a5b3)" style="fill: none; stroke: #ffffff; stroke-width: 2; stroke-linecap: square"/>
   </g>
   <g id="line2d_27">
    <path d="M 269.030334 44.2832 
L 281.082374 44.2832 
" clip-path="url(#pe4fa24a5b3)" style="fill: none; stroke: #ffffff; stroke-width: 2; stroke-linecap: square"/>
   </g>
   <g id="line2d_28">
    <path d="M 275.056354 143.017218 
L 275.056354 130.965178 
" clip-path="url(#pe4fa24a5b3)" style="fill: none; stroke: #ffffff; stroke-width: 2; stroke-linecap: square"/>
   </g>
   <g id="line2d_29">
    <path d="M 269.030334 136.991198 
L 281.082374 136.991198 
" clip-path="url(#pe4fa24a5b3)" style="fill: none; stroke: #ffffff; stroke-width: 2; stroke-linecap: square"/>
   </g>
   <g id="text_1">
    <g clip-path="url(#pe4fa24a5b3)">
     <!-- ${q}_{0}$ -->
     <g transform="translate(37.300897 48.734176) scale(0.1625 -0.1625)">
      <defs>
       <path id="DejaVuSans-Oblique-71" d="M 2669 525 
Q 2438 222 2123 65 
Q 1809 -91 1428 -91 
Q 897 -91 595 267 
Q 294 625 294 1253 
Q 294 1759 480 2231 
Q 666 2703 1013 3078 
Q 1238 3322 1530 3453 
Q 1822 3584 2144 3584 
Q 2531 3584 2781 3431 
Q 3031 3278 3144 2969 
L 3244 3494 
L 3822 3494 
L 2888 -1319 
L 2309 -1319 
L 2669 525 
z
M 891 1338 
Q 891 875 1084 633 
Q 1278 391 1644 391 
Q 2188 391 2572 911 
Q 2956 1431 2956 2175 
Q 2956 2625 2757 2864 
Q 2559 3103 2188 3103 
Q 1916 3103 1684 2976 
Q 1453 2850 1281 2606 
Q 1100 2350 995 2006 
Q 891 1663 891 1338 
z
" transform="scale(0.015625)"/>
       <path id="DejaVuSans-30" d="M 2034 4250 
Q 1547 4250 1301 3770 
Q 1056 3291 1056 2328 
Q 1056 1369 1301 889 
Q 1547 409 2034 409 
Q 2525 409 2770 889 
Q 3016 1369 3016 2328 
Q 3016 3291 2770 3770 
Q 2525 4250 2034 4250 
z
M 2034 4750 
Q 2819 4750 3233 4129 
Q 3647 3509 3647 2328 
Q 3647 1150 3233 529 
Q 2819 -91 2034 -91 
Q 1250 -91 836 529 
Q 422 1150 422 2328 
Q 422 3509 836 4129 
Q 1250 4750 2034 4750 
z
" transform="scale(0.015625)"/>
      </defs>
      <use xlink:href="#DejaVuSans-Oblique-71"/>
      <use xlink:href="#DejaVuSans-30" transform="translate(63.476562 -16.40625) scale(0.7)"/>
     </g>
    </g>
   </g>
   <g id="text_2">
    <g clip-path="url(#pe4fa24a5b3)">
     <!-- ${q}_{1}$ -->
     <g transform="translate(37.300897 95.088175) scale(0.1625 -0.1625)">
      <defs>
       <path id="DejaVuSans-31" d="M 794 531 
L 1825 531 
L 1825 4091 
L 703 3866 
L 703 4441 
L 1819 4666 
L 2450 4666 
L 2450 531 
L 3481 531 
L 3481 0 
L 794 0 
L 794 531 
z
" transform="scale(0.015625)"/>
      </defs>
      <use xlink:href="#DejaVuSans-Oblique-71"/>
      <use xlink:href="#DejaVuSans-31" transform="translate(63.476562 -16.40625) scale(0.7)"/>
     </g>
    </g>
   </g>
   <g id="text_3">
    <g clip-path="url(#pe4fa24a5b3)">
     <!-- ${q}_{2}$ -->
     <g transform="translate(37.300897 141.442175) scale(0.1625 -0.1625)">
      <defs>
       <path id="DejaVuSans-32" d="M 1228 531 
L 3431 531 
L 3431 0 
L 469 0 
L 469 531 
Q 828 903 1448 1529 
Q 2069 2156 2228 2338 
Q 2531 2678 2651 2914 
Q 2772 3150 2772 3378 
Q 2772 3750 2511 3984 
Q 2250 4219 1831 4219 
Q 1534 4219 1204 4116 
Q 875 4013 500 3803 
L 500 4441 
Q 881 4594 1212 4672 
Q 1544 4750 1819 4750 
Q 2544 4750 2975 4387 
Q 3406 4025 3406 3419 
Q 3406 3131 3298 2873 
Q 3191 2616 2906 2266 
Q 2828 2175 2409 1742 
Q 1991 1309 1228 531 
z
" transform="scale(0.015625)"/>
      </defs>
      <use xlink:href="#DejaVuSans-Oblique-71"/>
      <use xlink:href="#DejaVuSans-32" transform="translate(63.476562 -16.40625) scale(0.7)"/>
     </g>
    </g>
   </g>
   <g id="text_4">
    <g clip-path="url(#pe4fa24a5b3)">
     <!-- ${q}_{3}$ -->
     <g transform="translate(37.300897 187.796174) scale(0.1625 -0.1625)">
      <defs>
       <path id="DejaVuSans-33" d="M 2597 2516 
Q 3050 2419 3304 2112 
Q 3559 1806 3559 1356 
Q 3559 666 3084 287 
Q 2609 -91 1734 -91 
Q 1441 -91 1130 -33 
Q 819 25 488 141 
L 488 750 
Q 750 597 1062 519 
Q 1375 441 1716 441 
Q 2309 441 2620 675 
Q 2931 909 2931 1356 
Q 2931 1769 2642 2001 
Q 2353 2234 1838 2234 
L 1294 2234 
L 1294 2753 
L 1863 2753 
Q 2328 2753 2575 2939 
Q 2822 3125 2822 3475 
Q 2822 3834 2567 4026 
Q 2313 4219 1838 4219 
Q 1578 4219 1281 4162 
Q 984 4106 628 3988 
L 628 4550 
Q 988 4650 1302 4700 
Q 1616 4750 1894 4750 
Q 2613 4750 3031 4423 
Q 3450 4097 3450 3541 
Q 3450 3153 3228 2886 
Q 3006 2619 2597 2516 
z
" transform="scale(0.015625)"/>
      </defs>
      <use xlink:href="#DejaVuSans-Oblique-71"/>
      <use xlink:href="#DejaVuSans-33" transform="translate(63.476562 -16.40625) scale(0.7)"/>
     </g>
    </g>
   </g>
   <g id="text_5">
    <g clip-path="url(#pe4fa24a5b3)">
     <!-- ${q}_{4}$ -->
     <g transform="translate(37.300897 234.150174) scale(0.1625 -0.1625)">
      <defs>
       <path id="DejaVuSans-34" d="M 2419 4116 
L 825 1625 
L 2419 1625 
L 2419 4116 
z
M 2253 4666 
L 3047 4666 
L 3047 1625 
L 3713 1625 
L 3713 1100 
L 3047 1100 
L 3047 0 
L 2419 0 
L 2419 1100 
L 313 1100 
L 313 1709 
L 2253 4666 
z
" transform="scale(0.015625)"/>
      </defs>
      <use xlink:href="#DejaVuSans-Oblique-71"/>
      <use xlink:href="#DejaVuSans-34" transform="translate(63.476562 -16.40625) scale(0.7)"/>
     </g>
    </g>
   </g>
   <g id="text_6">
    <g clip-path="url(#pe4fa24a5b3)">
     <!-- $-$2*t, 0 -->
     <g style="fill: #ffffff" transform="translate(167.788355 101.883729) scale(0.08 -0.08)">
      <defs>
       <path id="DejaVuSans-2212" d="M 678 2272 
L 4684 2272 
L 4684 1741 
L 678 1741 
L 678 2272 
z
" transform="scale(0.015625)"/>
       <path id="DejaVuSans-2a" d="M 3009 3897 
L 1888 3291 
L 3009 2681 
L 2828 2375 
L 1778 3009 
L 1778 1831 
L 1422 1831 
L 1422 3009 
L 372 2375 
L 191 2681 
L 1313 3291 
L 191 3897 
L 372 4206 
L 1422 3572 
L 1422 4750 
L 1778 4750 
L 1778 3572 
L 2828 4206 
L 3009 3897 
z
" transform="scale(0.015625)"/>
       <path id="DejaVuSans-74" d="M 1172 4494 
L 1172 3500 
L 2356 3500 
L 2356 3053 
L 1172 3053 
L 1172 1153 
Q 1172 725 1289 603 
Q 1406 481 1766 481 
L 2356 481 
L 2356 0 
L 1766 0 
Q 1100 0 847 248 
Q 594 497 594 1153 
L 594 3053 
L 172 3053 
L 172 3500 
L 594 3500 
L 594 4494 
L 1172 4494 
z
" transform="scale(0.015625)"/>
       <path id="DejaVuSans-2c" d="M 750 794 
L 1409 794 
L 1409 256 
L 897 -744 
L 494 -744 
L 750 256 
L 750 794 
z
" transform="scale(0.015625)"/>
       <path id="DejaVuSans-20" transform="scale(0.015625)"/>
      </defs>
      <use xlink:href="#DejaVuSans-2212" transform="translate(0 0.78125)"/>
      <use xlink:href="#DejaVuSans-32" transform="translate(83.789062 0.78125)"/>
      <use xlink:href="#DejaVuSans-2a" transform="translate(147.412109 0.78125)"/>
      <use xlink:href="#DejaVuSans-74" transform="translate(197.412109 0.78125)"/>
      <use xlink:href="#DejaVuSans-2c" transform="translate(236.621094 0.78125)"/>
      <use xlink:href="#DejaVuSans-20" transform="translate(268.408203 0.78125)"/>
      <use xlink:href="#DejaVuSans-30" transform="translate(300.195312 0.78125)"/>
     </g>
    </g>
   </g>
   <g id="text_7">
    <g clip-path="url(#pe4fa24a5b3)">
     <!-- R -->
     <g style="fill: #ffffff" transform="translate(177.831871 89.704871) scale(0.13 -0.13)">
      <defs>
       <path id="DejaVuSans-52" d="M 2841 2188 
Q 3044 2119 3236 1894 
Q 3428 1669 3622 1275 
L 4263 0 
L 3584 0 
L 2988 1197 
Q 2756 1666 2539 1819 
Q 2322 1972 1947 1972 
L 1259 1972 
L 1259 0 
L 628 0 
L 628 4666 
L 2053 4666 
Q 2853 4666 3247 4331 
Q 3641 3997 3641 3322 
Q 3641 2881 3436 2590 
Q 3231 2300 2841 2188 
z
M 1259 4147 
L 1259 2491 
L 2053 2491 
Q 2509 2491 2742 2702 
Q 2975 2913 2975 3322 
Q 2975 3731 2742 3939 
Q 2509 4147 2053 4147 
L 1259 4147 
z
" transform="scale(0.015625)"/>
      </defs>
      <use xlink:href="#DejaVuSans-52"/>
     </g>
    </g>
   </g>
   <g id="text_8">
    <g clip-path="url(#pe4fa24a5b3)">
     <!-- $-$2*t, 0 -->
     <g style="fill: #ffffff" transform="translate(167.788355 194.591728) scale(0.08 -0.08)">
      <use xlink:href="#DejaVuSans-2212" transform="translate(0 0.78125)"/>
      <use xlink:href="#DejaVuSans-32" transform="translate(83.789062 0.78125)"/>
      <use xlink:href="#DejaVuSans-2a" transform="translate(147.412109 0.78125)"/>
      <use xlink:href="#DejaVuSans-74" transform="translate(197.412109 0.78125)"/>
      <use xlink:href="#DejaVuSans-2c" transform="translate(236.621094 0.78125)"/>
      <use xlink:href="#DejaVuSans-20" transform="translate(268.408203 0.78125)"/>
      <use xlink:href="#DejaVuSans-30" transform="translate(300.195312 0.78125)"/>
     </g>
    </g>
   </g>
   <g id="text_9">
    <g clip-path="url(#pe4fa24a5b3)">
     <!-- R -->
     <g style="fill: #ffffff" transform="translate(177.831871 182.41287) scale(0.13 -0.13)">
      <use xlink:href="#DejaVuSans-52"/>
     </g>
    </g>
   </g>
  </g>
 </g>
 <defs>
  <clipPath id="pe4fa24a5b3">
   <rect x="7.2" y="7.2" width="298.449993" height="250.311597"/>
  </clipPath>
 </defs>
</svg>
