<?xml version="1.0" encoding="utf-8" standalone="no"?>
<!DOCTYPE svg PUBLIC "-//W3C//DTD SVG 1.1//EN"
  "http://www.w3.org/Graphics/SVG/1.1/DTD/svg11.dtd">
<svg xmlns:xlink="http://www.w3.org/1999/xlink" width="359.203993pt" height="272.310034pt" viewBox="0 0 359.203993 272.310034" xmlns="http://www.w3.org/2000/svg" version="1.1">
 <metadata>
  <rdf:RDF xmlns:dc="http://purl.org/dc/elements/1.1/" xmlns:cc="http://creativecommons.org/ns#" xmlns:rdf="http://www.w3.org/1999/02/22-rdf-syntax-ns#">
   <cc:Work>
    <dc:type rdf:resource="http://purl.org/dc/dcmitype/StillImage"/>
    <dc:date>2024-10-30T12:13:39.096248</dc:date>
    <dc:format>image/svg+xml</dc:format>
    <dc:creator>
     <cc:Agent>
      <dc:title>Matplotlib v3.8.4, https://matplotlib.org/</dc:title>
     </cc:Agent>
    </dc:creator>
   </cc:Work>
  </rdf:RDF>
 </metadata>
 <defs>
  <style type="text/css">*{stroke-linejoin: round; stroke-linecap: butt}</style>
 </defs>
 <g id="figure_1">
  <g id="patch_1">
   <path d="M 0 272.310034 
L 359.203993 272.310034 
L 359.203993 0 
L 0 0 
z
" style="fill: #ffffff"/>
  </g>
  <g id="axes_1">
   <g id="line2d_1">
    <path d="M 64.609196 51.881637 
L 347.368593 51.881637 
" clip-path="url(#p89a74d6586)" style="fill: none; stroke: #000000; stroke-width: 2; stroke-linecap: square"/>
   </g>
   <g id="line2d_2">
    <path d="M 64.609196 98.235636 
L 347.368593 98.235636 
" clip-path="url(#p89a74d6586)" style="fill: none; stroke: #000000; stroke-width: 2; stroke-linecap: square"/>
   </g>
   <g id="line2d_3">
    <path d="M 64.609196 144.589636 
L 347.368593 144.589636 
" clip-path="url(#p89a74d6586)" style="fill: none; stroke: #000000; stroke-width: 2; stroke-linecap: square"/>
   </g>
   <g id="line2d_4">
    <path d="M 64.609196 190.943635 
L 347.368593 190.943635 
" clip-path="url(#p89a74d6586)" style="fill: none; stroke: #000000; stroke-width: 2; stroke-linecap: square"/>
   </g>
   <g id="line2d_5">
    <path d="M 64.609196 237.297635 
L 347.368593 237.297635 
" clip-path="url(#p89a74d6586)" style="fill: none; stroke: #000000; stroke-width: 2; stroke-linecap: square"/>
   </g>
   <g id="text_1">
    <!-- Global Phase: 3*t_g -->
    <g transform="translate(7.2 14.798437) scale(0.1 -0.1)">
     <defs>
      <path id="DejaVuSans-47" d="M 3809 666 
L 3809 1919 
L 2778 1919 
L 2778 2438 
L 4434 2438 
L 4434 434 
Q 4069 175 3628 42 
Q 3188 -91 2688 -91 
Q 1594 -91 976 548 
Q 359 1188 359 2328 
Q 359 3472 976 4111 
Q 1594 4750 2688 4750 
Q 3144 4750 3555 4637 
Q 3966 4525 4313 4306 
L 4313 3634 
Q 3963 3931 3569 4081 
Q 3175 4231 2741 4231 
Q 1884 4231 1454 3753 
Q 1025 3275 1025 2328 
Q 1025 1384 1454 906 
Q 1884 428 2741 428 
Q 3075 428 3337 486 
Q 3600 544 3809 666 
z
" transform="scale(0.015625)"/>
      <path id="DejaVuSans-6c" d="M 603 4863 
L 1178 4863 
L 1178 0 
L 603 0 
L 603 4863 
z
" transform="scale(0.015625)"/>
      <path id="DejaVuSans-6f" d="M 1959 3097 
Q 1497 3097 1228 2736 
Q 959 2375 959 1747 
Q 959 1119 1226 758 
Q 1494 397 1959 397 
Q 2419 397 2687 759 
Q 2956 1122 2956 1747 
Q 2956 2369 2687 2733 
Q 2419 3097 1959 3097 
z
M 1959 3584 
Q 2709 3584 3137 3096 
Q 3566 2609 3566 1747 
Q 3566 888 3137 398 
Q 2709 -91 1959 -91 
Q 1206 -91 779 398 
Q 353 888 353 1747 
Q 353 2609 779 3096 
Q 1206 3584 1959 3584 
z
" transform="scale(0.015625)"/>
      <path id="DejaVuSans-62" d="M 3116 1747 
Q 3116 2381 2855 2742 
Q 2594 3103 2138 3103 
Q 1681 3103 1420 2742 
Q 1159 2381 1159 1747 
Q 1159 1113 1420 752 
Q 1681 391 2138 391 
Q 2594 391 2855 752 
Q 3116 1113 3116 1747 
z
M 1159 2969 
Q 1341 3281 1617 3432 
Q 1894 3584 2278 3584 
Q 2916 3584 3314 3078 
Q 3713 2572 3713 1747 
Q 3713 922 3314 415 
Q 2916 -91 2278 -91 
Q 1894 -91 1617 61 
Q 1341 213 1159 525 
L 1159 0 
L 581 0 
L 581 4863 
L 1159 4863 
L 1159 2969 
z
" transform="scale(0.015625)"/>
      <path id="DejaVuSans-61" d="M 2194 1759 
Q 1497 1759 1228 1600 
Q 959 1441 959 1056 
Q 959 750 1161 570 
Q 1363 391 1709 391 
Q 2188 391 2477 730 
Q 2766 1069 2766 1631 
L 2766 1759 
L 2194 1759 
z
M 3341 1997 
L 3341 0 
L 2766 0 
L 2766 531 
Q 2569 213 2275 61 
Q 1981 -91 1556 -91 
Q 1019 -91 701 211 
Q 384 513 384 1019 
Q 384 1609 779 1909 
Q 1175 2209 1959 2209 
L 2766 2209 
L 2766 2266 
Q 2766 2663 2505 2880 
Q 2244 3097 1772 3097 
Q 1472 3097 1187 3025 
Q 903 2953 641 2809 
L 641 3341 
Q 956 3463 1253 3523 
Q 1550 3584 1831 3584 
Q 2591 3584 2966 3190 
Q 3341 2797 3341 1997 
z
" transform="scale(0.015625)"/>
      <path id="DejaVuSans-20" transform="scale(0.015625)"/>
      <path id="DejaVuSans-50" d="M 1259 4147 
L 1259 2394 
L 2053 2394 
Q 2494 2394 2734 2622 
Q 2975 2850 2975 3272 
Q 2975 3691 2734 3919 
Q 2494 4147 2053 4147 
L 1259 4147 
z
M 628 4666 
L 2053 4666 
Q 2838 4666 3239 4311 
Q 3641 3956 3641 3272 
Q 3641 2581 3239 2228 
Q 2838 1875 2053 1875 
L 1259 1875 
L 1259 0 
L 628 0 
L 628 4666 
z
" transform="scale(0.015625)"/>
      <path id="DejaVuSans-68" d="M 3513 2113 
L 3513 0 
L 2938 0 
L 2938 2094 
Q 2938 2591 2744 2837 
Q 2550 3084 2163 3084 
Q 1697 3084 1428 2787 
Q 1159 2491 1159 1978 
L 1159 0 
L 581 0 
L 581 4863 
L 1159 4863 
L 1159 2956 
Q 1366 3272 1645 3428 
Q 1925 3584 2291 3584 
Q 2894 3584 3203 3211 
Q 3513 2838 3513 2113 
z
" transform="scale(0.015625)"/>
      <path id="DejaVuSans-73" d="M 2834 3397 
L 2834 2853 
Q 2591 2978 2328 3040 
Q 2066 3103 1784 3103 
Q 1356 3103 1142 2972 
Q 928 2841 928 2578 
Q 928 2378 1081 2264 
Q 1234 2150 1697 2047 
L 1894 2003 
Q 2506 1872 2764 1633 
Q 3022 1394 3022 966 
Q 3022 478 2636 193 
Q 2250 -91 1575 -91 
Q 1294 -91 989 -36 
Q 684 19 347 128 
L 347 722 
Q 666 556 975 473 
Q 1284 391 1588 391 
Q 1994 391 2212 530 
Q 2431 669 2431 922 
Q 2431 1156 2273 1281 
Q 2116 1406 1581 1522 
L 1381 1569 
Q 847 1681 609 1914 
Q 372 2147 372 2553 
Q 372 3047 722 3315 
Q 1072 3584 1716 3584 
Q 2034 3584 2315 3537 
Q 2597 3491 2834 3397 
z
" transform="scale(0.015625)"/>
      <path id="DejaVuSans-65" d="M 3597 1894 
L 3597 1613 
L 953 1613 
Q 991 1019 1311 708 
Q 1631 397 2203 397 
Q 2534 397 2845 478 
Q 3156 559 3463 722 
L 3463 178 
Q 3153 47 2828 -22 
Q 2503 -91 2169 -91 
Q 1331 -91 842 396 
Q 353 884 353 1716 
Q 353 2575 817 3079 
Q 1281 3584 2069 3584 
Q 2775 3584 3186 3129 
Q 3597 2675 3597 1894 
z
M 3022 2063 
Q 3016 2534 2758 2815 
Q 2500 3097 2075 3097 
Q 1594 3097 1305 2825 
Q 1016 2553 972 2059 
L 3022 2063 
z
" transform="scale(0.015625)"/>
      <path id="DejaVuSans-3a" d="M 750 794 
L 1409 794 
L 1409 0 
L 750 0 
L 750 794 
z
M 750 3309 
L 1409 3309 
L 1409 2516 
L 750 2516 
L 750 3309 
z
" transform="scale(0.015625)"/>
      <path id="DejaVuSans-33" d="M 2597 2516 
Q 3050 2419 3304 2112 
Q 3559 1806 3559 1356 
Q 3559 666 3084 287 
Q 2609 -91 1734 -91 
Q 1441 -91 1130 -33 
Q 819 25 488 141 
L 488 750 
Q 750 597 1062 519 
Q 1375 441 1716 441 
Q 2309 441 2620 675 
Q 2931 909 2931 1356 
Q 2931 1769 2642 2001 
Q 2353 2234 1838 2234 
L 1294 2234 
L 1294 2753 
L 1863 2753 
Q 2328 2753 2575 2939 
Q 2822 3125 2822 3475 
Q 2822 3834 2567 4026 
Q 2313 4219 1838 4219 
Q 1578 4219 1281 4162 
Q 984 4106 628 3988 
L 628 4550 
Q 988 4650 1302 4700 
Q 1616 4750 1894 4750 
Q 2613 4750 3031 4423 
Q 3450 4097 3450 3541 
Q 3450 3153 3228 2886 
Q 3006 2619 2597 2516 
z
" transform="scale(0.015625)"/>
      <path id="DejaVuSans-2a" d="M 3009 3897 
L 1888 3291 
L 3009 2681 
L 2828 2375 
L 1778 3009 
L 1778 1831 
L 1422 1831 
L 1422 3009 
L 372 2375 
L 191 2681 
L 1313 3291 
L 191 3897 
L 372 4206 
L 1422 3572 
L 1422 4750 
L 1778 4750 
L 1778 3572 
L 2828 4206 
L 3009 3897 
z
" transform="scale(0.015625)"/>
      <path id="DejaVuSans-74" d="M 1172 4494 
L 1172 3500 
L 2356 3500 
L 2356 3053 
L 1172 3053 
L 1172 1153 
Q 1172 725 1289 603 
Q 1406 481 1766 481 
L 2356 481 
L 2356 0 
L 1766 0 
Q 1100 0 847 248 
Q 594 497 594 1153 
L 594 3053 
L 172 3053 
L 172 3500 
L 594 3500 
L 594 4494 
L 1172 4494 
z
" transform="scale(0.015625)"/>
      <path id="DejaVuSans-5f" d="M 3263 -1063 
L 3263 -1509 
L -63 -1509 
L -63 -1063 
L 3263 -1063 
z
" transform="scale(0.015625)"/>
      <path id="DejaVuSans-67" d="M 2906 1791 
Q 2906 2416 2648 2759 
Q 2391 3103 1925 3103 
Q 1463 3103 1205 2759 
Q 947 2416 947 1791 
Q 947 1169 1205 825 
Q 1463 481 1925 481 
Q 2391 481 2648 825 
Q 2906 1169 2906 1791 
z
M 3481 434 
Q 3481 -459 3084 -895 
Q 2688 -1331 1869 -1331 
Q 1566 -1331 1297 -1286 
Q 1028 -1241 775 -1147 
L 775 -588 
Q 1028 -725 1275 -790 
Q 1522 -856 1778 -856 
Q 2344 -856 2625 -561 
Q 2906 -266 2906 331 
L 2906 616 
Q 2728 306 2450 153 
Q 2172 0 1784 0 
Q 1141 0 747 490 
Q 353 981 353 1791 
Q 353 2603 747 3093 
Q 1141 3584 1784 3584 
Q 2172 3584 2450 3431 
Q 2728 3278 2906 2969 
L 2906 3500 
L 3481 3500 
L 3481 434 
z
" transform="scale(0.015625)"/>
     </defs>
     <use xlink:href="#DejaVuSans-47"/>
     <use xlink:href="#DejaVuSans-6c" x="77.490234"/>
     <use xlink:href="#DejaVuSans-6f" x="105.273438"/>
     <use xlink:href="#DejaVuSans-62" x="166.455078"/>
     <use xlink:href="#DejaVuSans-61" x="229.931641"/>
     <use xlink:href="#DejaVuSans-6c" x="291.210938"/>
     <use xlink:href="#DejaVuSans-20" x="318.994141"/>
     <use xlink:href="#DejaVuSans-50" x="350.78125"/>
     <use xlink:href="#DejaVuSans-68" x="411.083984"/>
     <use xlink:href="#DejaVuSans-61" x="474.462891"/>
     <use xlink:href="#DejaVuSans-73" x="535.742188"/>
     <use xlink:href="#DejaVuSans-65" x="587.841797"/>
     <use xlink:href="#DejaVuSans-3a" x="649.365234"/>
     <use xlink:href="#DejaVuSans-20" x="683.056641"/>
     <use xlink:href="#DejaVuSans-33" x="714.84375"/>
     <use xlink:href="#DejaVuSans-2a" x="778.466797"/>
     <use xlink:href="#DejaVuSans-74" x="828.466797"/>
     <use xlink:href="#DejaVuSans-5f" x="867.675781"/>
     <use xlink:href="#DejaVuSans-67" x="917.675781"/>
    </g>
   </g>
   <g id="patch_2">
    <path d="M 59.973797 28.704637 
L -1098.876188 28.704637 
L -1098.876188 306.828634 
L 59.973797 306.828634 
z
" clip-path="url(#p89a74d6586)" style="fill: #ffffff; stroke: #ffffff; stroke-width: 1.5; stroke-linejoin: miter"/>
   </g>
   <g id="line2d_6">
    <path d="M 89.640356 98.235636 
L 89.640356 51.881637 
" clip-path="url(#p89a74d6586)" style="fill: none; stroke: #002d9c; stroke-width: 2; stroke-linecap: square"/>
   </g>
   <g id="line2d_7">
    <path d="M 89.640356 190.943635 
L 89.640356 144.589636 
" clip-path="url(#p89a74d6586)" style="fill: none; stroke: #002d9c; stroke-width: 2; stroke-linecap: square"/>
   </g>
   <g id="line2d_8">
    <path d="M 135.994356 144.589636 
L 135.994356 98.235636 
" clip-path="url(#p89a74d6586)" style="fill: none; stroke: #002d9c; stroke-width: 2; stroke-linecap: square"/>
   </g>
   <g id="line2d_9">
    <path d="M 135.994356 237.297635 
L 135.994356 190.943635 
" clip-path="url(#p89a74d6586)" style="fill: none; stroke: #002d9c; stroke-width: 2; stroke-linecap: square"/>
   </g>
   <g id="line2d_10">
    <path d="M 275.056354 144.589636 
L 275.056354 98.235636 
" clip-path="url(#p89a74d6586)" style="fill: none; stroke: #002d9c; stroke-width: 2; stroke-linecap: square"/>
   </g>
   <g id="line2d_11">
    <path d="M 275.056354 237.297635 
L 275.056354 190.943635 
" clip-path="url(#p89a74d6586)" style="fill: none; stroke: #002d9c; stroke-width: 2; stroke-linecap: square"/>
   </g>
   <g id="line2d_12">
    <path d="M 321.410353 98.235636 
L 321.410353 51.881637 
" clip-path="url(#p89a74d6586)" style="fill: none; stroke: #002d9c; stroke-width: 2; stroke-linecap: square"/>
   </g>
   <g id="line2d_13">
    <path d="M 321.410353 190.943635 
L 321.410353 144.589636 
" clip-path="url(#p89a74d6586)" style="fill: none; stroke: #002d9c; stroke-width: 2; stroke-linecap: square"/>
   </g>
   <g id="patch_3">
    <path d="M 89.640356 102.755151 
C 90.838946 102.755151 91.988605 102.278947 92.836136 101.431416 
C 93.683666 100.583885 94.159871 99.434226 94.159871 98.235636 
C 94.159871 97.037047 93.683666 95.887387 92.836136 95.039857 
C 91.988605 94.192326 90.838946 93.716121 89.640356 93.716121 
C 88.441767 93.716121 87.292107 94.192326 86.444576 95.039857 
C 85.597046 95.887387 85.120841 97.037047 85.120841 98.235636 
C 85.120841 99.434226 85.597046 100.583885 86.444576 101.431416 
C 87.292107 102.278947 88.441767 102.755151 89.640356 102.755151 
z
" clip-path="url(#p89a74d6586)" style="fill: #002d9c; stroke: #002d9c; stroke-width: 1.5; stroke-linejoin: miter"/>
   </g>
   <g id="patch_4">
    <path d="M 89.640356 62.427172 
C 92.437065 62.427172 95.119604 61.316028 97.097175 59.338456 
C 99.074747 57.360885 100.185891 54.678346 100.185891 51.881637 
C 100.185891 49.084928 99.074747 46.402389 97.097175 44.424818 
C 95.119604 42.447246 92.437065 41.336102 89.640356 41.336102 
C 86.843648 41.336102 84.161108 42.447246 82.183537 44.424818 
C 80.205965 46.402389 79.094821 49.084928 79.094821 51.881637 
C 79.094821 54.678346 80.205965 57.360885 82.183537 59.338456 
C 84.161108 61.316028 86.843648 62.427172 89.640356 62.427172 
z
" clip-path="url(#p89a74d6586)" style="fill: #002d9c; stroke: #002d9c; stroke-width: 2; stroke-linejoin: miter"/>
   </g>
   <g id="patch_5">
    <path d="M 89.640356 195.46315 
C 90.838946 195.46315 91.988605 194.986945 92.836136 194.139415 
C 93.683666 193.291884 94.159871 192.142225 94.159871 190.943635 
C 94.159871 189.745046 93.683666 188.595386 92.836136 187.747855 
C 91.988605 186.900325 90.838946 186.42412 89.640356 186.42412 
C 88.441767 186.42412 87.292107 186.900325 86.444576 187.747855 
C 85.597046 188.595386 85.120841 189.745046 85.120841 190.943635 
C 85.120841 192.142225 85.597046 193.291884 86.444576 194.139415 
C 87.292107 194.986945 88.441767 195.46315 89.640356 195.46315 
z
" clip-path="url(#p89a74d6586)" style="fill: #002d9c; stroke: #002d9c; stroke-width: 1.5; stroke-linejoin: miter"/>
   </g>
   <g id="patch_6">
    <path d="M 89.640356 155.135171 
C 92.437065 155.135171 95.119604 154.024027 97.097175 152.046455 
C 99.074747 150.068883 100.185891 147.386344 100.185891 144.589636 
C 100.185891 141.792927 99.074747 139.110388 97.097175 137.132817 
C 95.119604 135.155245 92.437065 134.044101 89.640356 134.044101 
C 86.843648 134.044101 84.161108 135.155245 82.183537 137.132817 
C 80.205965 139.110388 79.094821 141.792927 79.094821 144.589636 
C 79.094821 147.386344 80.205965 150.068883 82.183537 152.046455 
C 84.161108 154.024027 86.843648 155.135171 89.640356 155.135171 
z
" clip-path="url(#p89a74d6586)" style="fill: #002d9c; stroke: #002d9c; stroke-width: 2; stroke-linejoin: miter"/>
   </g>
   <g id="patch_7">
    <path d="M 120.829645 66.946687 
L 151.159066 66.946687 
L 151.159066 36.816587 
L 120.829645 36.816587 
z
" clip-path="url(#p89a74d6586)" style="fill: #33b1ff; stroke: #33b1ff; stroke-width: 1.5; stroke-linejoin: miter"/>
   </g>
   <g id="patch_8">
    <path d="M 135.994356 102.755151 
C 137.192945 102.755151 138.342605 102.278947 139.190135 101.431416 
C 140.037666 100.583885 140.51387 99.434226 140.51387 98.235636 
C 140.51387 97.037047 140.037666 95.887387 139.190135 95.039857 
C 138.342605 94.192326 137.192945 93.716121 135.994356 93.716121 
C 134.795766 93.716121 133.646107 94.192326 132.798576 95.039857 
C 131.951045 95.887387 131.474841 97.037047 131.474841 98.235636 
C 131.474841 99.434226 131.951045 100.583885 132.798576 101.431416 
C 133.646107 102.278947 134.795766 102.755151 135.994356 102.755151 
z
" clip-path="url(#p89a74d6586)" style="fill: #002d9c; stroke: #002d9c; stroke-width: 1.5; stroke-linejoin: miter"/>
   </g>
   <g id="patch_9">
    <path d="M 135.994356 155.135171 
C 138.791064 155.135171 141.473603 154.024027 143.451175 152.046455 
C 145.428746 150.068883 146.53989 147.386344 146.53989 144.589636 
C 146.53989 141.792927 145.428746 139.110388 143.451175 137.132817 
C 141.473603 135.155245 138.791064 134.044101 135.994356 134.044101 
C 133.197647 134.044101 130.515108 135.155245 128.537536 137.132817 
C 126.559965 139.110388 125.448821 141.792927 125.448821 144.589636 
C 125.448821 147.386344 126.559965 150.068883 128.537536 152.046455 
C 130.515108 154.024027 133.197647 155.135171 135.994356 155.135171 
z
" clip-path="url(#p89a74d6586)" style="fill: #002d9c; stroke: #002d9c; stroke-width: 2; stroke-linejoin: miter"/>
   </g>
   <g id="patch_10">
    <path d="M 135.994356 195.46315 
C 137.192945 195.46315 138.342605 194.986945 139.190135 194.139415 
C 140.037666 193.291884 140.51387 192.142225 140.51387 190.943635 
C 140.51387 189.745046 140.037666 188.595386 139.190135 187.747855 
C 138.342605 186.900325 137.192945 186.42412 135.994356 186.42412 
C 134.795766 186.42412 133.646107 186.900325 132.798576 187.747855 
C 131.951045 188.595386 131.474841 189.745046 131.474841 190.943635 
C 131.474841 192.142225 131.951045 193.291884 132.798576 194.139415 
C 133.646107 194.986945 134.795766 195.46315 135.994356 195.46315 
z
" clip-path="url(#p89a74d6586)" style="fill: #002d9c; stroke: #002d9c; stroke-width: 1.5; stroke-linejoin: miter"/>
   </g>
   <g id="patch_11">
    <path d="M 135.994356 247.843169 
C 138.791064 247.843169 141.473603 246.732025 143.451175 244.754454 
C 145.428746 242.776882 146.53989 240.094343 146.53989 237.297635 
C 146.53989 234.500926 145.428746 231.818387 143.451175 229.840815 
C 141.473603 227.863244 138.791064 226.7521 135.994356 226.7521 
C 133.197647 226.7521 130.515108 227.863244 128.537536 229.840815 
C 126.559965 231.818387 125.448821 234.500926 125.448821 237.297635 
C 125.448821 240.094343 126.559965 242.776882 128.537536 244.754454 
C 130.515108 246.732025 133.197647 247.843169 135.994356 247.843169 
z
" clip-path="url(#p89a74d6586)" style="fill: #002d9c; stroke: #002d9c; stroke-width: 2; stroke-linejoin: miter"/>
   </g>
   <g id="patch_12">
    <path d="M 176.938843 113.300686 
L 234.111866 113.300686 
L 234.111866 83.170587 
L 176.938843 83.170587 
z
" clip-path="url(#p89a74d6586)" style="fill: #9f1853; stroke: #9f1853; stroke-width: 1.5; stroke-linejoin: miter"/>
   </g>
   <g id="patch_13">
    <path d="M 190.360644 159.654686 
L 220.690065 159.654686 
L 220.690065 129.524586 
L 190.360644 129.524586 
z
" clip-path="url(#p89a74d6586)" style="fill: #33b1ff; stroke: #33b1ff; stroke-width: 1.5; stroke-linejoin: miter"/>
   </g>
   <g id="patch_14">
    <path d="M 176.938843 206.008685 
L 234.111866 206.008685 
L 234.111866 175.878585 
L 176.938843 175.878585 
z
" clip-path="url(#p89a74d6586)" style="fill: #9f1853; stroke: #9f1853; stroke-width: 1.5; stroke-linejoin: miter"/>
   </g>
   <g id="patch_15">
    <path d="M 190.360644 252.362684 
L 220.690065 252.362684 
L 220.690065 222.232585 
L 190.360644 222.232585 
z
" clip-path="url(#p89a74d6586)" style="fill: #33b1ff; stroke: #33b1ff; stroke-width: 1.5; stroke-linejoin: miter"/>
   </g>
   <g id="patch_16">
    <path d="M 275.056354 102.755151 
C 276.254943 102.755151 277.404603 102.278947 278.252133 101.431416 
C 279.099664 100.583885 279.575869 99.434226 279.575869 98.235636 
C 279.575869 97.037047 279.099664 95.887387 278.252133 95.039857 
C 277.404603 94.192326 276.254943 93.716121 275.056354 93.716121 
C 273.857764 93.716121 272.708105 94.192326 271.860574 95.039857 
C 271.013043 95.887387 270.536839 97.037047 270.536839 98.235636 
C 270.536839 99.434226 271.013043 100.583885 271.860574 101.431416 
C 272.708105 102.278947 273.857764 102.755151 275.056354 102.755151 
z
" clip-path="url(#p89a74d6586)" style="fill: #002d9c; stroke: #002d9c; stroke-width: 1.5; stroke-linejoin: miter"/>
   </g>
   <g id="patch_17">
    <path d="M 275.056354 155.135171 
C 277.853062 155.135171 280.535601 154.024027 282.513173 152.046455 
C 284.490744 150.068883 285.601889 147.386344 285.601889 144.589636 
C 285.601889 141.792927 284.490744 139.110388 282.513173 137.132817 
C 280.535601 135.155245 277.853062 134.044101 275.056354 134.044101 
C 272.259645 134.044101 269.577106 135.155245 267.599534 137.132817 
C 265.621963 139.110388 264.510819 141.792927 264.510819 144.589636 
C 264.510819 147.386344 265.621963 150.068883 267.599534 152.046455 
C 269.577106 154.024027 272.259645 155.135171 275.056354 155.135171 
z
" clip-path="url(#p89a74d6586)" style="fill: #002d9c; stroke: #002d9c; stroke-width: 2; stroke-linejoin: miter"/>
   </g>
   <g id="patch_18">
    <path d="M 275.056354 195.46315 
C 276.254943 195.46315 277.404603 194.986945 278.252133 194.139415 
C 279.099664 193.291884 279.575869 192.142225 279.575869 190.943635 
C 279.575869 189.745046 279.099664 188.595386 278.252133 187.747855 
C 277.404603 186.900325 276.254943 186.42412 275.056354 186.42412 
C 273.857764 186.42412 272.708105 186.900325 271.860574 187.747855 
C 271.013043 188.595386 270.536839 189.745046 270.536839 190.943635 
C 270.536839 192.142225 271.013043 193.291884 271.860574 194.139415 
C 272.708105 194.986945 273.857764 195.46315 275.056354 195.46315 
z
" clip-path="url(#p89a74d6586)" style="fill: #002d9c; stroke: #002d9c; stroke-width: 1.5; stroke-linejoin: miter"/>
   </g>
   <g id="patch_19">
    <path d="M 275.056354 247.843169 
C 277.853062 247.843169 280.535601 246.732025 282.513173 244.754454 
C 284.490744 242.776882 285.601889 240.094343 285.601889 237.297635 
C 285.601889 234.500926 284.490744 231.818387 282.513173 229.840815 
C 280.535601 227.863244 277.853062 226.7521 275.056354 226.7521 
C 272.259645 226.7521 269.577106 227.863244 267.599534 229.840815 
C 265.621963 231.818387 264.510819 234.500926 264.510819 237.297635 
C 264.510819 240.094343 265.621963 242.776882 267.599534 244.754454 
C 269.577106 246.732025 272.259645 247.843169 275.056354 247.843169 
z
" clip-path="url(#p89a74d6586)" style="fill: #002d9c; stroke: #002d9c; stroke-width: 2; stroke-linejoin: miter"/>
   </g>
   <g id="patch_20">
    <path d="M 321.410353 102.755151 
C 322.608942 102.755151 323.758602 102.278947 324.606133 101.431416 
C 325.453663 100.583885 325.929868 99.434226 325.929868 98.235636 
C 325.929868 97.037047 325.453663 95.887387 324.606133 95.039857 
C 323.758602 94.192326 322.608942 93.716121 321.410353 93.716121 
C 320.211764 93.716121 319.062104 94.192326 318.214573 95.039857 
C 317.367043 95.887387 316.890838 97.037047 316.890838 98.235636 
C 316.890838 99.434226 317.367043 100.583885 318.214573 101.431416 
C 319.062104 102.278947 320.211764 102.755151 321.410353 102.755151 
z
" clip-path="url(#p89a74d6586)" style="fill: #002d9c; stroke: #002d9c; stroke-width: 1.5; stroke-linejoin: miter"/>
   </g>
   <g id="patch_21">
    <path d="M 321.410353 62.427172 
C 324.207062 62.427172 326.889601 61.316028 328.867172 59.338456 
C 330.844744 57.360885 331.955888 54.678346 331.955888 51.881637 
C 331.955888 49.084928 330.844744 46.402389 328.867172 44.424818 
C 326.889601 42.447246 324.207062 41.336102 321.410353 41.336102 
C 318.613645 41.336102 315.931105 42.447246 313.953534 44.424818 
C 311.975962 46.402389 310.864818 49.084928 310.864818 51.881637 
C 310.864818 54.678346 311.975962 57.360885 313.953534 59.338456 
C 315.931105 61.316028 318.613645 62.427172 321.410353 62.427172 
z
" clip-path="url(#p89a74d6586)" style="fill: #002d9c; stroke: #002d9c; stroke-width: 2; stroke-linejoin: miter"/>
   </g>
   <g id="patch_22">
    <path d="M 321.410353 195.46315 
C 322.608942 195.46315 323.758602 194.986945 324.606133 194.139415 
C 325.453663 193.291884 325.929868 192.142225 325.929868 190.943635 
C 325.929868 189.745046 325.453663 188.595386 324.606133 187.747855 
C 323.758602 186.900325 322.608942 186.42412 321.410353 186.42412 
C 320.211764 186.42412 319.062104 186.900325 318.214573 187.747855 
C 317.367043 188.595386 316.890838 189.745046 316.890838 190.943635 
C 316.890838 192.142225 317.367043 193.291884 318.214573 194.139415 
C 319.062104 194.986945 320.211764 195.46315 321.410353 195.46315 
z
" clip-path="url(#p89a74d6586)" style="fill: #002d9c; stroke: #002d9c; stroke-width: 1.5; stroke-linejoin: miter"/>
   </g>
   <g id="patch_23">
    <path d="M 321.410353 155.135171 
C 324.207062 155.135171 326.889601 154.024027 328.867172 152.046455 
C 330.844744 150.068883 331.955888 147.386344 331.955888 144.589636 
C 331.955888 141.792927 330.844744 139.110388 328.867172 137.132817 
C 326.889601 135.155245 324.207062 134.044101 321.410353 134.044101 
C 318.613645 134.044101 315.931105 135.155245 313.953534 137.132817 
C 311.975962 139.110388 310.864818 141.792927 310.864818 144.589636 
C 310.864818 147.386344 311.975962 150.068883 313.953534 152.046455 
C 315.931105 154.024027 318.613645 155.135171 321.410353 155.135171 
z
" clip-path="url(#p89a74d6586)" style="fill: #002d9c; stroke: #002d9c; stroke-width: 2; stroke-linejoin: miter"/>
   </g>
   <g id="line2d_14">
    <path d="M 89.640356 57.907657 
L 89.640356 45.855617 
" clip-path="url(#p89a74d6586)" style="fill: none; stroke: #ffffff; stroke-width: 2; stroke-linecap: square"/>
   </g>
   <g id="line2d_15">
    <path d="M 83.614336 51.881637 
L 95.666376 51.881637 
" clip-path="url(#p89a74d6586)" style="fill: none; stroke: #ffffff; stroke-width: 2; stroke-linecap: square"/>
   </g>
   <g id="line2d_16">
    <path d="M 89.640356 150.615656 
L 89.640356 138.563616 
" clip-path="url(#p89a74d6586)" style="fill: none; stroke: #ffffff; stroke-width: 2; stroke-linecap: square"/>
   </g>
   <g id="line2d_17">
    <path d="M 83.614336 144.589636 
L 95.666376 144.589636 
" clip-path="url(#p89a74d6586)" style="fill: none; stroke: #ffffff; stroke-width: 2; stroke-linecap: square"/>
   </g>
   <g id="line2d_18">
    <path d="M 135.994356 150.615656 
L 135.994356 138.563616 
" clip-path="url(#p89a74d6586)" style="fill: none; stroke: #ffffff; stroke-width: 2; stroke-linecap: square"/>
   </g>
   <g id="line2d_19">
    <path d="M 129.968336 144.589636 
L 142.020375 144.589636 
" clip-path="url(#p89a74d6586)" style="fill: none; stroke: #ffffff; stroke-width: 2; stroke-linecap: square"/>
   </g>
   <g id="line2d_20">
    <path d="M 135.994356 243.323654 
L 135.994356 231.271615 
" clip-path="url(#p89a74d6586)" style="fill: none; stroke: #ffffff; stroke-width: 2; stroke-linecap: square"/>
   </g>
   <g id="line2d_21">
    <path d="M 129.968336 237.297635 
L 142.020375 237.297635 
" clip-path="url(#p89a74d6586)" style="fill: none; stroke: #ffffff; stroke-width: 2; stroke-linecap: square"/>
   </g>
   <g id="line2d_22">
    <path d="M 275.056354 150.615656 
L 275.056354 138.563616 
" clip-path="url(#p89a74d6586)" style="fill: none; stroke: #ffffff; stroke-width: 2; stroke-linecap: square"/>
   </g>
   <g id="line2d_23">
    <path d="M 269.030334 144.589636 
L 281.082374 144.589636 
" clip-path="url(#p89a74d6586)" style="fill: none; stroke: #ffffff; stroke-width: 2; stroke-linecap: square"/>
   </g>
   <g id="line2d_24">
    <path d="M 275.056354 243.323654 
L 275.056354 231.271615 
" clip-path="url(#p89a74d6586)" style="fill: none; stroke: #ffffff; stroke-width: 2; stroke-linecap: square"/>
   </g>
   <g id="line2d_25">
    <path d="M 269.030334 237.297635 
L 281.082374 237.297635 
" clip-path="url(#p89a74d6586)" style="fill: none; stroke: #ffffff; stroke-width: 2; stroke-linecap: square"/>
   </g>
   <g id="line2d_26">
    <path d="M 321.410353 57.907657 
L 321.410353 45.855617 
" clip-path="url(#p89a74d6586)" style="fill: none; stroke: #ffffff; stroke-width: 2; stroke-linecap: square"/>
   </g>
   <g id="line2d_27">
    <path d="M 315.384333 51.881637 
L 327.436373 51.881637 
" clip-path="url(#p89a74d6586)" style="fill: none; stroke: #ffffff; stroke-width: 2; stroke-linecap: square"/>
   </g>
   <g id="line2d_28">
    <path d="M 321.410353 150.615656 
L 321.410353 138.563616 
" clip-path="url(#p89a74d6586)" style="fill: none; stroke: #ffffff; stroke-width: 2; stroke-linecap: square"/>
   </g>
   <g id="line2d_29">
    <path d="M 315.384333 144.589636 
L 327.436373 144.589636 
" clip-path="url(#p89a74d6586)" style="fill: none; stroke: #ffffff; stroke-width: 2; stroke-linecap: square"/>
   </g>
   <g id="text_2">
    <g clip-path="url(#p89a74d6586)">
     <!-- ${q}_{0}$ -->
     <g transform="translate(37.300897 56.332614) scale(0.1625 -0.1625)">
      <defs>
       <path id="DejaVuSans-Oblique-71" d="M 2669 525 
Q 2438 222 2123 65 
Q 1809 -91 1428 -91 
Q 897 -91 595 267 
Q 294 625 294 1253 
Q 294 1759 480 2231 
Q 666 2703 1013 3078 
Q 1238 3322 1530 3453 
Q 1822 3584 2144 3584 
Q 2531 3584 2781 3431 
Q 3031 3278 3144 2969 
L 3244 3494 
L 3822 3494 
L 2888 -1319 
L 2309 -1319 
L 2669 525 
z
M 891 1338 
Q 891 875 1084 633 
Q 1278 391 1644 391 
Q 2188 391 2572 911 
Q 2956 1431 2956 2175 
Q 2956 2625 2757 2864 
Q 2559 3103 2188 3103 
Q 1916 3103 1684 2976 
Q 1453 2850 1281 2606 
Q 1100 2350 995 2006 
Q 891 1663 891 1338 
z
" transform="scale(0.015625)"/>
       <path id="DejaVuSans-30" d="M 2034 4250 
Q 1547 4250 1301 3770 
Q 1056 3291 1056 2328 
Q 1056 1369 1301 889 
Q 1547 409 2034 409 
Q 2525 409 2770 889 
Q 3016 1369 3016 2328 
Q 3016 3291 2770 3770 
Q 2525 4250 2034 4250 
z
M 2034 4750 
Q 2819 4750 3233 4129 
Q 3647 3509 3647 2328 
Q 3647 1150 3233 529 
Q 2819 -91 2034 -91 
Q 1250 -91 836 529 
Q 422 1150 422 2328 
Q 422 3509 836 4129 
Q 1250 4750 2034 4750 
z
" transform="scale(0.015625)"/>
      </defs>
      <use xlink:href="#DejaVuSans-Oblique-71"/>
      <use xlink:href="#DejaVuSans-30" transform="translate(63.476562 -16.40625) scale(0.7)"/>
     </g>
    </g>
   </g>
   <g id="text_3">
    <g clip-path="url(#p89a74d6586)">
     <!-- ${q}_{1}$ -->
     <g transform="translate(37.300897 102.686613) scale(0.1625 -0.1625)">
      <defs>
       <path id="DejaVuSans-31" d="M 794 531 
L 1825 531 
L 1825 4091 
L 703 3866 
L 703 4441 
L 1819 4666 
L 2450 4666 
L 2450 531 
L 3481 531 
L 3481 0 
L 794 0 
L 794 531 
z
" transform="scale(0.015625)"/>
      </defs>
      <use xlink:href="#DejaVuSans-Oblique-71"/>
      <use xlink:href="#DejaVuSans-31" transform="translate(63.476562 -16.40625) scale(0.7)"/>
     </g>
    </g>
   </g>
   <g id="text_4">
    <g clip-path="url(#p89a74d6586)">
     <!-- ${q}_{2}$ -->
     <g transform="translate(37.300897 149.040612) scale(0.1625 -0.1625)">
      <defs>
       <path id="DejaVuSans-32" d="M 1228 531 
L 3431 531 
L 3431 0 
L 469 0 
L 469 531 
Q 828 903 1448 1529 
Q 2069 2156 2228 2338 
Q 2531 2678 2651 2914 
Q 2772 3150 2772 3378 
Q 2772 3750 2511 3984 
Q 2250 4219 1831 4219 
Q 1534 4219 1204 4116 
Q 875 4013 500 3803 
L 500 4441 
Q 881 4594 1212 4672 
Q 1544 4750 1819 4750 
Q 2544 4750 2975 4387 
Q 3406 4025 3406 3419 
Q 3406 3131 3298 2873 
Q 3191 2616 2906 2266 
Q 2828 2175 2409 1742 
Q 1991 1309 1228 531 
z
" transform="scale(0.015625)"/>
      </defs>
      <use xlink:href="#DejaVuSans-Oblique-71"/>
      <use xlink:href="#DejaVuSans-32" transform="translate(63.476562 -16.40625) scale(0.7)"/>
     </g>
    </g>
   </g>
   <g id="text_5">
    <g clip-path="url(#p89a74d6586)">
     <!-- ${q}_{3}$ -->
     <g transform="translate(37.300897 195.394612) scale(0.1625 -0.1625)">
      <use xlink:href="#DejaVuSans-Oblique-71"/>
      <use xlink:href="#DejaVuSans-33" transform="translate(63.476562 -16.40625) scale(0.7)"/>
     </g>
    </g>
   </g>
   <g id="text_6">
    <g clip-path="url(#p89a74d6586)">
     <!-- ${q}_{4}$ -->
     <g transform="translate(37.300897 241.748611) scale(0.1625 -0.1625)">
      <defs>
       <path id="DejaVuSans-34" d="M 2419 4116 
L 825 1625 
L 2419 1625 
L 2419 4116 
z
M 2253 4666 
L 3047 4666 
L 3047 1625 
L 3713 1625 
L 3713 1100 
L 3047 1100 
L 3047 0 
L 2419 0 
L 2419 1100 
L 313 1100 
L 313 1709 
L 2253 4666 
z
" transform="scale(0.015625)"/>
      </defs>
      <use xlink:href="#DejaVuSans-Oblique-71"/>
      <use xlink:href="#DejaVuSans-34" transform="translate(63.476562 -16.40625) scale(0.7)"/>
     </g>
    </g>
   </g>
   <g id="text_7">
    <g clip-path="url(#p89a74d6586)">
     <!-- $-$2*t_g -->
     <g transform="translate(121.954356 62.960667) scale(0.08 -0.08)">
      <defs>
       <path id="DejaVuSans-2212" d="M 678 2272 
L 4684 2272 
L 4684 1741 
L 678 1741 
L 678 2272 
z
" transform="scale(0.015625)"/>
      </defs>
      <use xlink:href="#DejaVuSans-2212" transform="translate(0 0.78125)"/>
      <use xlink:href="#DejaVuSans-32" transform="translate(83.789062 0.78125)"/>
      <use xlink:href="#DejaVuSans-2a" transform="translate(147.412109 0.78125)"/>
      <use xlink:href="#DejaVuSans-74" transform="translate(197.412109 0.78125)"/>
      <use xlink:href="#DejaVuSans-5f" transform="translate(236.621094 0.78125)"/>
      <use xlink:href="#DejaVuSans-67" transform="translate(286.621094 0.78125)"/>
     </g>
    </g>
   </g>
   <g id="text_8">
    <g clip-path="url(#p89a74d6586)">
     <!-- $\mathrm{U_1}$ -->
     <g transform="translate(128.064356 50.94931) scale(0.13 -0.13)">
      <defs>
       <path id="DejaVuSans-55" d="M 556 4666 
L 1191 4666 
L 1191 1831 
Q 1191 1081 1462 751 
Q 1734 422 2344 422 
Q 2950 422 3222 751 
Q 3494 1081 3494 1831 
L 3494 4666 
L 4128 4666 
L 4128 1753 
Q 4128 841 3676 375 
Q 3225 -91 2344 -91 
Q 1459 -91 1007 375 
Q 556 841 556 1753 
L 556 4666 
z
" transform="scale(0.015625)"/>
      </defs>
      <use xlink:href="#DejaVuSans-55" transform="translate(0 0.09375)"/>
      <use xlink:href="#DejaVuSans-31" transform="translate(74.150391 -16.3125) scale(0.7)"/>
     </g>
    </g>
   </g>
   <g id="text_9">
    <g clip-path="url(#p89a74d6586)">
     <!-- $-$2*t_lamb, 0 -->
     <g style="fill: #ffffff" transform="translate(178.965355 109.354666) scale(0.08 -0.08)">
      <defs>
       <path id="DejaVuSans-6d" d="M 3328 2828 
Q 3544 3216 3844 3400 
Q 4144 3584 4550 3584 
Q 5097 3584 5394 3201 
Q 5691 2819 5691 2113 
L 5691 0 
L 5113 0 
L 5113 2094 
Q 5113 2597 4934 2840 
Q 4756 3084 4391 3084 
Q 3944 3084 3684 2787 
Q 3425 2491 3425 1978 
L 3425 0 
L 2847 0 
L 2847 2094 
Q 2847 2600 2669 2842 
Q 2491 3084 2119 3084 
Q 1678 3084 1418 2786 
Q 1159 2488 1159 1978 
L 1159 0 
L 581 0 
L 581 3500 
L 1159 3500 
L 1159 2956 
Q 1356 3278 1631 3431 
Q 1906 3584 2284 3584 
Q 2666 3584 2933 3390 
Q 3200 3197 3328 2828 
z
" transform="scale(0.015625)"/>
       <path id="DejaVuSans-2c" d="M 750 794 
L 1409 794 
L 1409 256 
L 897 -744 
L 494 -744 
L 750 256 
L 750 794 
z
" transform="scale(0.015625)"/>
      </defs>
      <use xlink:href="#DejaVuSans-2212" transform="translate(0 0.015625)"/>
      <use xlink:href="#DejaVuSans-32" transform="translate(83.789062 0.015625)"/>
      <use xlink:href="#DejaVuSans-2a" transform="translate(147.412109 0.015625)"/>
      <use xlink:href="#DejaVuSans-74" transform="translate(197.412109 0.015625)"/>
      <use xlink:href="#DejaVuSans-5f" transform="translate(236.621094 0.015625)"/>
      <use xlink:href="#DejaVuSans-6c" transform="translate(286.621094 0.015625)"/>
      <use xlink:href="#DejaVuSans-61" transform="translate(314.404297 0.015625)"/>
      <use xlink:href="#DejaVuSans-6d" transform="translate(375.683594 0.015625)"/>
      <use xlink:href="#DejaVuSans-62" transform="translate(473.095703 0.015625)"/>
      <use xlink:href="#DejaVuSans-2c" transform="translate(536.572266 0.015625)"/>
      <use xlink:href="#DejaVuSans-20" transform="translate(568.359375 0.015625)"/>
      <use xlink:href="#DejaVuSans-30" transform="translate(600.146484 0.015625)"/>
     </g>
    </g>
   </g>
   <g id="text_10">
    <g clip-path="url(#p89a74d6586)">
     <!-- R -->
     <g style="fill: #ffffff" transform="translate(201.00887 97.303309) scale(0.13 -0.13)">
      <defs>
       <path id="DejaVuSans-52" d="M 2841 2188 
Q 3044 2119 3236 1894 
Q 3428 1669 3622 1275 
L 4263 0 
L 3584 0 
L 2988 1197 
Q 2756 1666 2539 1819 
Q 2322 1972 1947 1972 
L 1259 1972 
L 1259 0 
L 628 0 
L 628 4666 
L 2053 4666 
Q 2853 4666 3247 4331 
Q 3641 3997 3641 3322 
Q 3641 2881 3436 2590 
Q 3231 2300 2841 2188 
z
M 1259 4147 
L 1259 2491 
L 2053 2491 
Q 2509 2491 2742 2702 
Q 2975 2913 2975 3322 
Q 2975 3731 2742 3939 
Q 2509 4147 2053 4147 
L 1259 4147 
z
" transform="scale(0.015625)"/>
      </defs>
      <use xlink:href="#DejaVuSans-52"/>
     </g>
    </g>
   </g>
   <g id="text_11">
    <g clip-path="url(#p89a74d6586)">
     <!-- $-$2*t_g -->
     <g transform="translate(191.485355 155.668666) scale(0.08 -0.08)">
      <use xlink:href="#DejaVuSans-2212" transform="translate(0 0.78125)"/>
      <use xlink:href="#DejaVuSans-32" transform="translate(83.789062 0.78125)"/>
      <use xlink:href="#DejaVuSans-2a" transform="translate(147.412109 0.78125)"/>
      <use xlink:href="#DejaVuSans-74" transform="translate(197.412109 0.78125)"/>
      <use xlink:href="#DejaVuSans-5f" transform="translate(236.621094 0.78125)"/>
      <use xlink:href="#DejaVuSans-67" transform="translate(286.621094 0.78125)"/>
     </g>
    </g>
   </g>
   <g id="text_12">
    <g clip-path="url(#p89a74d6586)">
     <!-- $\mathrm{U_1}$ -->
     <g transform="translate(197.595355 143.657308) scale(0.13 -0.13)">
      <use xlink:href="#DejaVuSans-55" transform="translate(0 0.09375)"/>
      <use xlink:href="#DejaVuSans-31" transform="translate(74.150391 -16.3125) scale(0.7)"/>
     </g>
    </g>
   </g>
   <g id="text_13">
    <g clip-path="url(#p89a74d6586)">
     <!-- $-$2*t_lamb, 0 -->
     <g style="fill: #ffffff" transform="translate(178.965355 202.062665) scale(0.08 -0.08)">
      <use xlink:href="#DejaVuSans-2212" transform="translate(0 0.015625)"/>
      <use xlink:href="#DejaVuSans-32" transform="translate(83.789062 0.015625)"/>
      <use xlink:href="#DejaVuSans-2a" transform="translate(147.412109 0.015625)"/>
      <use xlink:href="#DejaVuSans-74" transform="translate(197.412109 0.015625)"/>
      <use xlink:href="#DejaVuSans-5f" transform="translate(236.621094 0.015625)"/>
      <use xlink:href="#DejaVuSans-6c" transform="translate(286.621094 0.015625)"/>
      <use xlink:href="#DejaVuSans-61" transform="translate(314.404297 0.015625)"/>
      <use xlink:href="#DejaVuSans-6d" transform="translate(375.683594 0.015625)"/>
      <use xlink:href="#DejaVuSans-62" transform="translate(473.095703 0.015625)"/>
      <use xlink:href="#DejaVuSans-2c" transform="translate(536.572266 0.015625)"/>
      <use xlink:href="#DejaVuSans-20" transform="translate(568.359375 0.015625)"/>
      <use xlink:href="#DejaVuSans-30" transform="translate(600.146484 0.015625)"/>
     </g>
    </g>
   </g>
   <g id="text_14">
    <g clip-path="url(#p89a74d6586)">
     <!-- R -->
     <g style="fill: #ffffff" transform="translate(201.00887 190.011308) scale(0.13 -0.13)">
      <use xlink:href="#DejaVuSans-52"/>
     </g>
    </g>
   </g>
   <g id="text_15">
    <g clip-path="url(#p89a74d6586)">
     <!-- $-$2*t_g -->
     <g transform="translate(191.485355 248.376664) scale(0.08 -0.08)">
      <use xlink:href="#DejaVuSans-2212" transform="translate(0 0.78125)"/>
      <use xlink:href="#DejaVuSans-32" transform="translate(83.789062 0.78125)"/>
      <use xlink:href="#DejaVuSans-2a" transform="translate(147.412109 0.78125)"/>
      <use xlink:href="#DejaVuSans-74" transform="translate(197.412109 0.78125)"/>
      <use xlink:href="#DejaVuSans-5f" transform="translate(236.621094 0.78125)"/>
      <use xlink:href="#DejaVuSans-67" transform="translate(286.621094 0.78125)"/>
     </g>
    </g>
   </g>
   <g id="text_16">
    <g clip-path="url(#p89a74d6586)">
     <!-- $\mathrm{U_1}$ -->
     <g transform="translate(197.595355 236.365307) scale(0.13 -0.13)">
      <use xlink:href="#DejaVuSans-55" transform="translate(0 0.09375)"/>
      <use xlink:href="#DejaVuSans-31" transform="translate(74.150391 -16.3125) scale(0.7)"/>
     </g>
    </g>
   </g>
  </g>
 </g>
 <defs>
  <clipPath id="p89a74d6586">
   <rect x="7.2" y="14.798437" width="344.803993" height="250.311597"/>
  </clipPath>
 </defs>
</svg>
